<svg xmlns="http://www.w3.org/2000/svg" width="32" height="32" viewBox="0 0 32 32">
  <defs>
    <style>
      .cls-1 {
        fill: #24292e;
      }
    </style>
  </defs>
  <rect class="cls-1" x="1" y="1" width="6" height="6"/>
  <rect id="Rectangle_1_copy" data-name="Rectangle 1 copy" class="cls-1" x="9" y="1" width="6" height="6"/>
  <rect id="Rectangle_1_copy_2" data-name="Rectangle 1 copy 2" class="cls-1" x="17" y="1" width="6" height="6"/>
  <rect id="Rectangle_1_copy_3" data-name="Rectangle 1 copy 3" class="cls-1" x="25" y="1" width="6" height="6"/>
  <rect id="Rectangle_1_copy_4" data-name="Rectangle 1 copy 4" class="cls-1" x="1" y="9" width="6" height="6"/>
  <rect id="Rectangle_1_copy_4-2" data-name="Rectangle 1 copy 4" class="cls-1" x="9" y="9" width="6" height="6"/>
  <rect id="Rectangle_1_copy_4-3" data-name="Rectangle 1 copy 4" class="cls-1" x="17" y="9" width="6" height="6"/>
  <rect id="Rectangle_1_copy_4-4" data-name="Rectangle 1 copy 4" class="cls-1" x="25" y="9" width="6" height="6"/>
  <rect id="Rectangle_1_copy_5" data-name="Rectangle 1 copy 5" class="cls-1" x="1" y="17" width="6" height="6"/>
  <rect id="Rectangle_1_copy_5-2" data-name="Rectangle 1 copy 5" class="cls-1" x="9" y="17" width="6" height="6"/>
  <rect id="Rectangle_1_copy_5-3" data-name="Rectangle 1 copy 5" class="cls-1" x="17" y="17" width="6" height="6"/>
  <rect id="Rectangle_1_copy_5-4" data-name="Rectangle 1 copy 5" class="cls-1" x="25" y="17" width="6" height="6"/>
  <rect id="Rectangle_1_copy_6" data-name="Rectangle 1 copy 6" class="cls-1" x="1" y="25" width="6" height="6"/>
  <rect id="Rectangle_1_copy_6-2" data-name="Rectangle 1 copy 6" class="cls-1" x="9" y="25" width="6" height="6"/>
  <rect id="Rectangle_1_copy_6-3" data-name="Rectangle 1 copy 6" class="cls-1" x="17" y="25" width="6" height="6"/>
  <rect id="Rectangle_1_copy_6-4" data-name="Rectangle 1 copy 6" class="cls-1" x="25" y="25" width="6" height="6"/>
</svg>
